<?xml version="1.0" encoding="utf-8"?>
<svg xmlns="http://www.w3.org/2000/svg" xmlns:xlink="http://www.w3.org/1999/xlink" style="margin: auto; background: rgb(1, 47, 50); display: block; z-index: 1; position: relative; shape-rendering: auto;" width="500" height="350" preserveAspectRatio="xMidYMid" viewBox="0 0 500 350">
<g transform=""><path d="M -100 207.946 C -88.376 209.609 -88.1369 206.236 -77.42 206.236 S -65.9451 207.363 -54.84 207.363 S -43.1081 206.514 -32.26 206.514 S -20.6439 207.828 -9.68 207.828 S 1.86672 204.845 12.9 204.845 S 24.3073 207.772 35.48 207.772 S 47.1635 206.291 58.06 206.291 S 69.6799 206.678 80.65 206.678 S 92.3807 206.82 103.23 206.82 S 114.987 208.894 125.81 208.894 S 137.508 205.155 148.39 205.155 S 160.135 206.232 170.97 206.232 S 182.85 208.5 193.55 208.5 S 205.051 207.321 216.13 207.321 S 228.039 204.06 238.71 204.06 S 250.427 209.312 261.29 209.312 S 272.952 207.87 283.87 207.87 S 295.728 207.908 306.45 207.908 S 318.175 205.646 329.03 205.646 S 340.842 205.544 351.61 205.544 S 363.426 206.238 374.19 206.238 S 386.133 207.911 396.77 207.911 S 408.749 203.504 419.35 203.504 S 430.909 205.307 441.94 205.307 S 453.715 206.05 464.52 206.05 S 476.53 210.271 487.1 210.271 S 498.676 209.374 509.68 209.374 S 521.437 207.999 532.26 207.999 S 543.971 207.095 554.84 207.095 S 566.837 208.351 577.42 208.351 S 589.54 210.145 600 210.145 S 611.528 205.919 622.58 205.919 L 600 350 L -100 350 Z" fill="#0f3535" stroke-width="0" transform="translate(2.49994 0)">
  <animate attributeName="d" dur="25s" repeatCount="indefinite" values="M-100 209.54C-88.58 209.23 -88.07 205.07 -77.42 205.07S-66.13 208.74 -54.84 208.74S-43.14 206.68 -32.26 206.68S-20.73 209.82 -9.68 209.82S1.65 204.73 12.9 204.73S24.32 207.23 35.48 207.23S46.95 206.76 58.06 206.76S69.46 205.83 80.65 205.83S92.25 205.52 103.23 205.52S115.06 210.37 125.81 210.37S137.39 204.46 148.39 204.46S160.03 203.96 170.97 203.96S183.06 209.66 193.55 209.66S204.85 207.71 216.13 207.71S228.08 203.85 238.71 203.85S250.59 209.64 261.29 209.64S272.93 206.92 283.87 206.92S295.84 206.33 306.45 206.33S318.21 204.9 329.03 204.9S341.03 204.76 351.61 204.76S363.56 207.51 374.19 207.51S386.35 206.78 396.77 206.78S408.87 203.31 419.35 203.31S431.03 203.79 441.94 203.79S453.82 206.26 464.52 206.26S476.6 210.3 487.1 210.3S498.8 211.21 509.68 211.21S521.44 210.24 532.26 210.24S543.99 207.42 554.84 207.42S566.99 206.91 577.42 206.91S589.54 209.45 600 209.45S611.48 206.26 622.58 206.26L600 350 L-100 350 Z;M-100 204.54C-87.94 210.42 -88.28 208.73 -77.42 208.73S-65.55 204.42 -54.84 204.42S-43.04 206.16 -32.26 206.16S-20.46 203.57 -9.68 203.57S2.33 205.09 12.9 205.09S24.28 208.93 35.48 208.93S47.62 205.29 58.06 205.29S70.15 208.49 80.65 208.49S92.66 209.6 103.23 209.6S114.83 205.74 125.81 205.74S137.76 206.64 148.39 206.64S160.36 211.09 170.97 211.09S182.4 206.02 193.55 206.02S205.48 206.49 216.13 206.49S227.95 204.51 238.71 204.51S250.08 208.61 261.29 208.61S273 209.9 283.87 209.9S295.49 211.28 306.45 211.28S318.1 207.24 329.03 207.24S340.44 207.22 351.61 207.22S363.14 203.52 374.19 203.52S385.67 210.33 396.77 210.33S408.49 203.92 419.35 203.92S430.65 208.55 441.94 208.55S453.49 205.6 464.52 205.6S476.38 210.21 487.1 210.21S498.41 205.45 509.68 205.45S521.43 203.21 532.26 203.21S543.93 206.4 554.84 206.4S566.51 211.43 577.42 211.43S589.54 211.63 600 211.63S611.63 205.19 622.58 205.19L600 350 L-100 350 Z;M-100 209.54C-88.58 209.23 -88.07 205.07 -77.42 205.07S-66.13 208.74 -54.84 208.74S-43.14 206.68 -32.26 206.68S-20.73 209.82 -9.68 209.82S1.65 204.73 12.9 204.73S24.32 207.23 35.48 207.23S46.95 206.76 58.06 206.76S69.46 205.83 80.65 205.83S92.25 205.52 103.23 205.52S115.06 210.37 125.81 210.37S137.39 204.46 148.39 204.46S160.03 203.96 170.97 203.96S183.06 209.66 193.55 209.66S204.85 207.71 216.13 207.71S228.08 203.85 238.71 203.85S250.59 209.64 261.29 209.64S272.93 206.92 283.87 206.92S295.84 206.33 306.45 206.33S318.21 204.9 329.03 204.9S341.03 204.76 351.61 204.76S363.56 207.51 374.19 207.51S386.35 206.78 396.77 206.78S408.87 203.31 419.35 203.31S431.03 203.79 441.94 203.79S453.82 206.26 464.52 206.26S476.6 210.3 487.1 210.3S498.8 211.21 509.68 211.21S521.44 210.24 532.26 210.24S543.99 207.42 554.84 207.42S566.99 206.91 577.42 206.91S589.54 209.45 600 209.45S611.48 206.26 622.58 206.26L600 350 L-100 350 Z"></animate>
  <animateTransform attributeName="transform" type="translate" dur="25s" begin="0s" repeatCount="indefinite" values="0;10;0" calcMode="spline" keySplines="0.3 0 0.7 1;0.3 0 0.7 1"></animateTransform>
</path><path d="M -100 217.193 C -87.9704 219.93 -87.9975 215.518 -76.82 215.518 S -64.5592 218.797 -53.64 218.797 S -41.7054 220.005 -30.46 220.005 S -18.6158 217.572 -7.28 217.572 S 4.34 215.925 15.89 215.925 S 27.9819 214.253 39.07 214.253 S 51.1521 217.188 62.25 217.188 S 74.5888 215.159 85.43 215.159 S 97.0983 214.195 108.61 214.195 S 120.703 216.355 131.79 216.355 S 143.464 220.544 154.97 220.544 S 167.168 217.173 178.15 217.173 S 190.41 218.834 201.32 218.834 S 213.312 213.578 224.5 213.578 S 236.654 216.839 247.68 216.839 S 259.961 218.261 270.86 218.261 S 282.91 221.375 294.04 221.375 S 306.01 215.659 317.22 215.659 S 329.585 217.96 340.4 217.96 S 352.355 220.113 363.58 220.113 S 376.026 218.15 386.75 218.15 S 399.006 215.985 409.93 215.985 S 421.879 219.307 433.11 219.307 S 444.836 213.106 456.29 213.106 S 468.345 215.687 479.47 215.687 S 491.345 214.688 502.65 214.688 S 514.69 214.811 525.83 214.811 S 538.065 218.033 549.01 218.033 S 560.886 216.891 572.19 216.891 S 584.156 216.48 595.36 216.48 S 607.45 218.07 618.54 218.07 L 600 350 L -100 350 Z" fill="#264747" stroke-width="0" transform="translate(5.77086 0)">
  <animate attributeName="d" dur="22.5s" repeatCount="indefinite" values="M-100 219.01C-87.85 219.64 -88.04 216.07 -76.82 216.07S-64.46 219.59 -53.64 219.59S-41.67 220.54 -30.46 220.54S-18.63 215.66 -7.28 215.66S4.34 215.61 15.89 215.61S27.78 215.17 39.07 215.17S51.4 215.35 62.25 215.35S74.61 216.31 85.43 216.31S97.07 214.51 108.61 214.51S120.88 214.9 131.79 214.9S143.39 220.65 154.97 220.65S167.03 219.74 178.15 219.74S190.46 217.46 201.32 217.46S213.1 213.04 224.5 213.04S236.93 214.53 247.68 214.53S259.89 218.52 270.86 218.52S283.02 221.85 294.04 221.85S305.79 217.43 317.22 217.43S329.56 216.09 340.4 216.09S352.44 220 363.58 220S376.04 216.27 386.75 216.27S399.18 213.57 409.93 213.57S421.72 221.34 433.11 221.34S444.79 212.72 456.29 212.72S468.54 216.2 479.47 216.2S491.09 215.51 502.65 215.51S514.81 212.52 525.83 212.52S538.03 220.42 549.01 220.42S560.89 217.89 572.19 217.89S584.17 218.7 595.36 218.7S607.33 218.69 618.54 218.69L600 350 L-100 350 Z;M-100 213.88C-88.19 220.46 -87.92 214.51 -76.82 214.51S-64.74 217.35 -53.64 217.35S-41.77 219.03 -30.46 219.03S-18.59 221.06 -7.28 221.06S4.34 216.5 15.89 216.5S28.35 212.58 39.07 212.58S50.7 220.54 62.25 220.54S74.55 213.06 85.43 213.06S97.15 213.62 108.61 213.62S120.38 219.01 131.79 219.01S143.6 220.35 154.97 220.35S167.42 212.49 178.15 212.49S190.32 221.34 201.32 221.34S213.7 214.56 224.5 214.56S236.15 221.05 247.68 221.05S260.09 217.79 270.86 217.79S282.71 220.51 294.04 220.51S306.41 212.43 317.22 212.43S329.63 221.37 340.4 221.37S352.2 220.32 363.58 220.32S376 221.58 386.75 221.58S398.69 220.39 409.93 220.39S422.17 215.6 433.11 215.6S444.92 213.81 456.29 213.81S467.99 214.75 479.47 214.75S491.81 213.19 502.65 213.19S514.47 218.99 525.83 218.99S538.13 213.68 549.01 213.68S560.88 215.07 572.19 215.07S584.13 212.43 595.36 212.43S607.67 216.94 618.54 216.94L600 350 L-100 350 Z;M-100 219.01C-87.85 219.64 -88.04 216.07 -76.82 216.07S-64.46 219.59 -53.64 219.59S-41.67 220.54 -30.46 220.54S-18.63 215.66 -7.28 215.66S4.34 215.61 15.89 215.61S27.78 215.17 39.07 215.17S51.4 215.35 62.25 215.35S74.61 216.31 85.43 216.31S97.07 214.51 108.61 214.51S120.88 214.9 131.79 214.9S143.39 220.65 154.97 220.65S167.03 219.74 178.15 219.74S190.46 217.46 201.32 217.46S213.1 213.04 224.5 213.04S236.93 214.53 247.68 214.53S259.89 218.52 270.86 218.52S283.02 221.85 294.04 221.85S305.79 217.43 317.22 217.43S329.56 216.09 340.4 216.09S352.44 220 363.58 220S376.04 216.27 386.75 216.27S399.18 213.57 409.93 213.57S421.72 221.34 433.11 221.34S444.79 212.72 456.29 212.72S468.54 216.2 479.47 216.2S491.09 215.51 502.65 215.51S514.81 212.52 525.83 212.52S538.03 220.42 549.01 220.42S560.89 217.89 572.19 217.89S584.17 218.7 595.36 218.7S607.33 218.69 618.54 218.69L600 350 L-100 350 Z"></animate>
  <animateTransform attributeName="transform" type="translate" dur="22.5s" begin="-2.25s" repeatCount="indefinite" values="0;10;0" calcMode="spline" keySplines="0.3 0 0.7 1;0.3 0 0.7 1"></animateTransform>
</path><path d="M -100 226.105 C -87.5559 224.289 -87.6864 228.014 -76.19 228.014 S -63.6516 222.139 -52.38 222.139 S -39.9107 228.621 -28.57 228.621 S -16.0285 228.727 -4.76 228.727 S 7.48203 227.98 19.05 227.98 S 31.2471 222.752 42.86 222.752 S 55.1824 230.835 66.67 230.835 S 79.0282 224.236 90.48 224.236 S 102.778 224.446 114.29 224.446 S 126.722 225.953 138.1 225.953 S 150.662 231.438 161.9 231.438 S 174.548 223.637 185.71 223.637 S 197.867 228.32 209.52 228.32 S 222.23 223.714 233.33 223.714 S 245.514 228.892 257.14 228.892 S 269.452 223.605 280.95 223.605 S 293.215 228.003 304.76 228.003 S 316.952 227.709 328.57 227.709 S 340.903 227.201 352.38 227.201 S 364.529 222.081 376.19 222.081 S 388.418 229.901 400 229.901 S 412.474 224.791 423.81 224.791 S 436.307 230.766 447.62 230.766 S 459.908 226.118 471.43 226.118 S 483.579 230.414 495.24 230.414 S 507.292 224.085 519.05 224.085 S 531.15 226.731 542.86 226.731 S 554.928 227.494 566.67 227.494 S 578.923 226.268 590.48 226.268 S 602.5 225.409 614.29 225.409 L 600 350 L -100 350 Z" fill="#3b5959" stroke-width="0" transform="translate(8.84993 0)">
  <animate attributeName="d" dur="20s" repeatCount="indefinite" values="M-100 229.2C-87.54 221.48 -87.79 224.93 -76.19 224.93S-63.56 220.98 -52.38 220.98S-40.09 228.35 -28.57 228.35S-16.14 228.93 -4.76 228.93S7.49 224.96 19.05 224.96S31.02 221.19 42.86 221.19S55.29 232.07 66.67 232.07S79.08 222.36 90.48 222.36S102.81 225.41 114.29 225.41S126.77 223.83 138.1 223.83S150.69 231.49 161.9 231.49S174.64 222.96 185.71 222.96S198.03 225.97 209.52 225.97S222.29 225.73 233.33 225.73S245.47 229.43 257.14 229.43S269.34 223.43 280.95 223.43S292.9 225.8 304.76 225.8S316.98 227.43 328.57 227.43S340.7 224.42 352.38 224.42S364.31 222.42 376.19 222.42S388.53 232.69 400 232.69S412.43 223.46 423.81 223.46S436.47 230.67 447.62 230.67S459.88 226.01 471.43 226.01S483.73 231.84 495.24 231.84S507.2 221.89 519.05 221.89S531.15 226.05 542.86 226.05S555 228.39 566.67 228.39S578.74 229.61 590.48 229.61S602.5 223.7 614.29 223.7L600 350 L-100 350 Z;M-100 221.43C-87.58 228.53 -87.53 232.67 -76.19 232.67S-63.79 223.89 -52.38 223.89S-39.64 229.03 -28.57 229.03S-15.86 228.42 -4.76 228.42S7.47 232.54 19.05 232.54S31.59 225.11 42.86 225.11S55.02 228.97 66.67 228.97S78.95 227.07 90.48 227.07S102.73 222.99 114.29 222.99S126.65 229.16 138.1 229.16S150.62 231.36 161.9 231.36S174.41 224.66 185.71 224.66S197.62 231.87 209.52 231.87S222.14 220.67 233.33 220.67S245.58 228.08 257.14 228.08S269.62 223.87 280.95 223.87S293.69 231.33 304.76 231.33S316.91 228.13 328.57 228.13S341.21 231.4 352.38 231.4S364.86 221.57 376.19 221.57S388.25 225.69 400 225.69S412.54 226.8 423.81 226.8S436.06 230.91 447.62 230.91S459.95 226.28 471.43 226.28S483.35 228.26 495.24 228.26S507.43 227.4 519.05 227.4S531.15 227.76 542.86 227.76S554.82 226.14 566.67 226.14S579.2 221.22 590.48 221.22S602.5 227.99 614.29 227.99L600 350 L-100 350 Z;M-100 229.2C-87.54 221.48 -87.79 224.93 -76.19 224.93S-63.56 220.98 -52.38 220.98S-40.09 228.35 -28.57 228.35S-16.14 228.93 -4.76 228.93S7.49 224.96 19.05 224.96S31.02 221.19 42.86 221.19S55.29 232.07 66.67 232.07S79.08 222.36 90.48 222.36S102.81 225.41 114.29 225.41S126.77 223.83 138.1 223.83S150.69 231.49 161.9 231.49S174.64 222.96 185.71 222.96S198.03 225.97 209.52 225.97S222.29 225.73 233.33 225.73S245.47 229.43 257.14 229.43S269.34 223.43 280.95 223.43S292.9 225.8 304.76 225.8S316.98 227.43 328.57 227.43S340.7 224.42 352.38 224.42S364.31 222.42 376.19 222.42S388.53 232.69 400 232.69S412.43 223.46 423.81 223.46S436.47 230.67 447.62 230.67S459.88 226.01 471.43 226.01S483.73 231.84 495.24 231.84S507.2 221.89 519.05 221.89S531.15 226.05 542.86 226.05S555 228.39 566.67 228.39S578.74 229.61 590.48 229.61S602.5 223.7 614.29 223.7L600 350 L-100 350 Z"></animate>
  <animateTransform attributeName="transform" type="translate" dur="20s" begin="-4s" repeatCount="indefinite" values="0;10;0" calcMode="spline" keySplines="0.3 0 0.7 1;0.3 0 0.7 1"></animateTransform>
</path><path d="M -100 237.268 C -87.072 236.022 -87.2242 237.113 -75.52 237.113 S -62.7239 231.072 -51.05 231.072 S -38.2508 239.287 -26.57 239.287 S -13.8624 235.553 -2.1 235.553 S 10.2509 237.325 22.38 237.325 S 34.9128 233.581 46.85 233.581 S 59.7534 241.333 71.33 241.333 S 84.0767 236.554 95.8 236.554 S 108.344 241.613 120.28 241.613 S 132.976 233.629 144.76 233.629 S 157.352 235.52 169.23 235.52 S 181.914 234.352 193.71 234.352 S 206.434 235.754 218.18 235.754 S 231.251 231.374 242.66 231.374 S 255.162 236.475 267.13 236.475 S 280.062 232.8 291.61 232.8 S 304.282 242.472 316.08 242.472 S 329.004 234.119 340.56 234.119 S 353.487 241.44 365.03 241.44 S 377.743 232.544 389.51 232.544 S 402.176 237.979 413.99 237.979 S 426.554 233.745 438.46 233.745 S 450.99 241.5 462.94 241.5 S 475.634 234.838 487.41 234.838 S 500.056 240.544 511.89 240.544 S 524.599 232.983 536.36 232.983 S 549.053 240.819 560.84 240.819 S 573.287 233.897 585.31 233.897 S 597.785 242.003 609.79 242.003 L 600 350 L -100 350 Z" fill="#516c6c" stroke-width="0" transform="translate(9.89535 0)">
  <animate attributeName="d" dur="17.5s" repeatCount="indefinite" values="M-100 239.95C-86.99 236.14 -86.91 236.07 -75.52 236.07S-62.56 229.82 -51.05 229.82S-38.31 237.07 -26.57 237.07S-13.53 240.37 -2.1 240.37S10.26 235.59 22.38 235.59S34.84 232.22 46.85 232.22S59.89 242.18 71.33 242.18S83.89 237.61 95.8 237.61S108.33 241.74 120.28 241.74S132.73 230.87 144.76 230.87S157.32 237.35 169.23 237.35S181.95 235.39 193.71 235.39S206.48 230.8 218.18 230.8S231.26 231.21 242.66 231.21S255.34 233.72 267.13 233.72S280.18 232.9 291.61 232.9S304.51 241.83 316.08 241.83S328.94 231 340.56 231S353.46 242.36 365.03 242.36S377.77 231.67 389.51 231.67S401.83 237.97 413.99 237.97S426.7 234.97 438.46 234.97S451.19 241.45 462.94 241.45S475.68 237.41 487.41 237.41S500.22 242.72 511.89 242.72S524.44 235.31 536.36 235.31S549.03 239.54 560.84 239.54S573.41 237.08 585.31 237.08S597.78 242.39 609.79 242.39L600 350 L-100 350 Z;M-100 234.06C-87.17 235.88 -87.6 238.36 -75.52 238.36S-62.92 232.57 -51.05 232.57S-38.18 241.94 -26.57 241.94S-14.26 229.79 -2.1 229.79S10.24 239.4 22.38 239.4S35 235.21 46.85 235.21S59.59 240.32 71.33 240.32S84.3 235.29 95.8 235.29S108.36 241.46 120.28 241.46S133.27 236.93 144.76 236.93S157.39 233.33 169.23 233.33S181.87 233.11 193.71 233.11S206.38 241.68 218.18 241.68S231.24 231.57 242.66 231.57S254.95 239.77 267.13 239.77S279.92 232.68 291.61 232.68S304.01 243.24 316.08 243.24S329.08 237.85 340.56 237.85S353.52 240.34 365.03 240.34S377.71 233.59 389.51 233.59S402.59 237.99 413.99 237.99S426.38 232.28 438.46 232.28S450.75 241.56 462.94 241.56S475.58 231.76 487.41 231.76S499.86 237.94 511.89 237.94S524.79 230.2 536.36 230.2S549.08 242.35 560.84 242.35S573.14 230.09 585.31 230.09S597.79 241.54 609.79 241.54L600 350 L-100 350 Z;M-100 239.95C-86.99 236.14 -86.91 236.07 -75.52 236.07S-62.56 229.82 -51.05 229.82S-38.31 237.07 -26.57 237.07S-13.53 240.37 -2.1 240.37S10.26 235.59 22.38 235.59S34.84 232.22 46.85 232.22S59.89 242.18 71.33 242.18S83.89 237.61 95.8 237.61S108.33 241.74 120.28 241.74S132.73 230.87 144.76 230.87S157.32 237.35 169.23 237.35S181.95 235.39 193.71 235.39S206.48 230.8 218.18 230.8S231.26 231.21 242.66 231.21S255.34 233.72 267.13 233.72S280.18 232.9 291.61 232.9S304.51 241.83 316.08 241.83S328.94 231 340.56 231S353.46 242.36 365.03 242.36S377.77 231.67 389.51 231.67S401.83 237.97 413.99 237.97S426.7 234.97 438.46 234.97S451.19 241.45 462.94 241.45S475.68 237.41 487.41 237.41S500.22 242.72 511.89 242.72S524.44 235.31 536.36 235.31S549.03 239.54 560.84 239.54S573.41 237.08 585.31 237.08S597.78 242.39 609.79 242.39L600 350 L-100 350 Z"></animate>
  <animateTransform attributeName="transform" type="translate" dur="17.5s" begin="-5.25s" repeatCount="indefinite" values="0;10;0" calcMode="spline" keySplines="0.3 0 0.7 1;0.3 0 0.7 1"></animateTransform>
</path><path d="M -100 242.077 C -86.9604 242.556 -86.9394 251.495 -74.82 251.495 S -61.8778 241.338 -49.64 241.338 S -36.5912 253.24 -24.46 253.24 S -11.6228 246.1 0.72 246.1 S 13.5594 247.177 25.9 247.177 S 38.6735 246.281 51.08 246.281 S 64.1472 250.231 76.26 250.231 S 89.256 244.127 101.44 244.127 S 114.439 246.011 126.62 246.011 S 139.576 241.052 151.8 241.052 S 165.054 248.286 176.98 248.286 S 190.252 244.155 202.16 244.155 S 215.173 251.73 227.34 251.73 S 240.321 244.677 252.52 244.677 S 265.644 249.48 277.7 249.48 S 290.948 240.045 302.88 240.045 S 315.749 244.159 328.06 244.159 S 340.903 244.914 353.24 244.914 S 366.162 250.385 378.42 250.385 S 391.524 246.099 403.6 246.099 S 416.643 252.853 428.78 252.853 S 441.963 241.915 453.96 241.915 S 466.813 250.914 479.14 250.914 S 492.148 240.698 504.32 240.698 S 517.564 247.96 529.5 247.96 S 542.173 246.292 554.68 246.292 S 567.397 249.134 579.86 249.134 S 592.639 239.385 605.04 239.385 L 600 350 L -100 350 Z" fill="#68807f" stroke-width="0" transform="translate(7.3393 0)">
  <animate attributeName="d" dur="15s" repeatCount="indefinite" values="M-100 246.55C-87.38 241.68 -86.95 250.48 -74.82 250.48S-61.83 238.74 -49.64 238.74S-36.57 253.49 -24.46 253.49S-11.83 253.08 0.72 253.08S13.57 249.53 25.9 249.53S38.87 253.68 51.08 253.68S64.45 248.94 76.26 248.94S89.58 239.83 101.44 239.83S114.28 239.1 126.62 239.1S139.98 243.15 151.8 243.15S165.16 251.67 176.98 251.67S190.21 241.85 202.16 241.85S215.2 249.52 227.34 249.52S240.65 250.35 252.52 250.35S265.4 250.85 277.7 250.85S291.07 242.34 302.88 242.34S315.77 248.43 328.06 248.43S341.19 243.99 353.24 243.99S365.88 249.37 378.42 249.37S391.12 239.04 403.6 239.04S417.01 251.87 428.78 251.87S441.66 243.37 453.96 243.37S467.02 252.55 479.14 252.55S491.92 238.09 504.32 238.09S517.33 253.32 529.5 253.32S542.12 246.34 554.68 246.34S567.54 247.11 579.86 247.11S592.49 239.72 605.04 239.72L600 350 L-100 350 Z;M-100 238.13C-86.59 243.33 -86.93 252.39 -74.82 252.39S-61.92 243.63 -49.64 243.63S-36.61 253.02 -24.46 253.02S-11.44 239.94 0.72 239.94S13.55 245.1 25.9 245.1S38.5 239.75 51.08 239.75S63.88 251.37 76.26 251.37S88.97 247.92 101.44 247.92S114.58 252.11 126.62 252.11S139.22 239.2 151.8 239.2S164.96 245.3 176.98 245.3S190.29 246.19 202.16 246.19S215.15 253.68 227.34 253.68S240.03 239.67 252.52 239.67S265.86 248.27 277.7 248.27S290.84 238.02 302.88 238.02S315.73 240.39 328.06 240.39S340.65 245.73 353.24 245.73S366.41 251.28 378.42 251.28S391.88 252.33 403.6 252.33S416.32 253.72 428.78 253.72S442.23 240.63 453.96 240.63S466.63 249.47 479.14 249.47S492.35 243 504.32 243S517.77 243.23 529.5 243.23S542.22 246.25 554.68 246.25S567.27 250.92 579.86 250.92S592.77 239.09 605.04 239.09L600 350 L-100 350 Z;M-100 246.55C-87.38 241.68 -86.95 250.48 -74.82 250.48S-61.83 238.74 -49.64 238.74S-36.57 253.49 -24.46 253.49S-11.83 253.08 0.72 253.08S13.57 249.53 25.9 249.53S38.87 253.68 51.08 253.68S64.45 248.94 76.26 248.94S89.58 239.83 101.44 239.83S114.28 239.1 126.62 239.1S139.98 243.15 151.8 243.15S165.16 251.67 176.98 251.67S190.21 241.85 202.16 241.85S215.2 249.52 227.34 249.52S240.65 250.35 252.52 250.35S265.4 250.85 277.7 250.85S291.07 242.34 302.88 242.34S315.77 248.43 328.06 248.43S341.19 243.99 353.24 243.99S365.88 249.37 378.42 249.37S391.12 239.04 403.6 239.04S417.01 251.87 428.78 251.87S441.66 243.37 453.96 243.37S467.02 252.55 479.14 252.55S491.92 238.09 504.32 238.09S517.33 253.32 529.5 253.32S542.12 246.34 554.68 246.34S567.54 247.11 579.86 247.11S592.49 239.72 605.04 239.72L600 350 L-100 350 Z"></animate>
  <animateTransform attributeName="transform" type="translate" dur="15s" begin="-6s" repeatCount="indefinite" values="0;10;0" calcMode="spline" keySplines="0.3 0 0.7 1;0.3 0 0.7 1"></animateTransform>
</path><path d="M -100 250.156 C -86.2561 251.288 -86.7481 256.752 -74.07 256.752 S -60.532 250.02 -48.15 250.02 S -34.7123 259.294 -22.22 259.294 S -8.86251 251.609 3.7 251.609 S 17.3656 255.7 29.63 255.7 S 42.8812 256.978 55.56 256.978 S 68.9013 260.97 81.48 260.97 S 94.8429 253.589 107.41 253.589 S 120.873 260.542 133.33 260.542 S 146.774 250.178 159.26 250.178 S 172.458 262.021 185.19 262.021 S 198.379 249.34 211.11 249.34 S 224.286 256.785 237.04 256.785 S 250.562 247.125 262.96 247.125 S 276.199 255.137 288.89 255.137 S 302.595 250.936 314.81 250.936 S 328.003 258.362 340.74 258.362 S 353.971 255.026 366.67 255.026 S 380.406 260.633 392.59 260.633 S 406.056 255.227 418.52 255.227 S 431.906 258.059 444.44 258.059 S 457.725 248.481 470.37 248.481 S 484.053 259.746 496.3 259.746 S 509.831 251.723 522.22 251.723 S 535.295 252.619 548.15 252.619 S 561.76 251.657 574.07 251.657 S 587.556 258.747 600 258.747 S 613.129 252.048 625.93 252.048 L 600 350 L -100 350 Z" fill="#7e9494" stroke-width="0" transform="translate(3.07561 0)">
  <animate attributeName="d" dur="12.5s" repeatCount="indefinite" values="M-100 254.72C-86.39 254.8 -86.27 256.37 -74.07 256.37S-60.94 253.66 -48.15 253.66S-34.4 262.36 -22.22 262.36S-8.99 255.23 3.7 255.23S17.27 259.11 29.63 259.11S43.27 248.8 55.56 248.8S68.64 260.83 81.48 260.83S94.76 252.41 107.41 252.41S121 262.34 133.33 262.34S146.43 253.48 159.26 253.48S172.77 262.99 185.19 262.99S198.15 252.61 211.11 252.61S224.63 262.26 237.04 262.26S250.32 247.31 262.96 247.31S276.25 247.15 288.89 247.15S302.48 252 314.81 252S328.36 260.16 340.74 260.16S354.22 255.6 366.67 255.6S380.24 258.23 392.59 258.23S405.75 254.87 418.52 254.87S431.88 257.3 444.44 257.3S458.05 247.06 470.37 247.06S484.04 260.9 496.3 260.9S509.5 249.62 522.22 249.62S535.25 260.44 548.15 260.44S561.53 253.41 574.07 253.41S587.18 260.29 600 260.29S613.32 254.98 625.93 254.98L600 350 L-100 350 Z;M-100 247.56C-86.18 249.29 -87.02 256.97 -74.07 256.97S-60.3 247.95 -48.15 247.95S-34.89 257.55 -22.22 257.55S-8.79 249.55 3.7 249.55S17.42 253.76 29.63 253.76S42.66 261.63 55.56 261.63S69.05 261.05 81.48 261.05S94.89 254.26 107.41 254.26S120.8 259.52 133.33 259.52S146.97 248.3 159.26 248.3S172.28 261.47 185.19 261.47S198.51 247.48 211.11 247.48S224.09 253.67 237.04 253.67S250.7 247.02 262.96 247.02S276.17 259.68 288.89 259.68S302.66 250.33 314.81 250.33S327.8 257.34 340.74 257.34S353.83 254.7 366.67 254.7S380.5 262 392.59 262S406.23 255.43 418.52 255.43S431.92 258.49 444.44 258.49S457.54 249.29 470.37 249.29S484.06 259.09 496.3 259.09S510.02 252.92 522.22 252.92S535.32 248.17 548.15 248.17S561.89 250.66 574.07 250.66S587.77 257.87 600 257.87S613.02 250.38 625.93 250.38L600 350 L-100 350 Z;M-100 254.72C-86.39 254.8 -86.27 256.37 -74.07 256.37S-60.94 253.66 -48.15 253.66S-34.4 262.36 -22.22 262.36S-8.99 255.23 3.7 255.23S17.27 259.11 29.63 259.11S43.27 248.8 55.56 248.8S68.64 260.83 81.48 260.83S94.76 252.41 107.41 252.41S121 262.34 133.33 262.34S146.43 253.48 159.26 253.48S172.77 262.99 185.19 262.99S198.15 252.61 211.11 252.61S224.63 262.26 237.04 262.26S250.32 247.31 262.96 247.31S276.25 247.15 288.89 247.15S302.48 252 314.81 252S328.36 260.16 340.74 260.16S354.22 255.6 366.67 255.6S380.24 258.23 392.59 258.23S405.75 254.87 418.52 254.87S431.88 257.3 444.44 257.3S458.05 247.06 470.37 247.06S484.04 260.9 496.3 260.9S509.5 249.62 522.22 249.62S535.25 260.44 548.15 260.44S561.53 253.41 574.07 253.41S587.18 260.29 600 260.29S613.32 254.98 625.93 254.98L600 350 L-100 350 Z"></animate>
  <animateTransform attributeName="transform" type="translate" dur="12.5s" begin="-6.25s" repeatCount="indefinite" values="0;10;0" calcMode="spline" keySplines="0.3 0 0.7 1;0.3 0 0.7 1"></animateTransform>
</path><path d="M -100 269.773 C -86.4364 271.333 -86.5715 268.206 -73.28 268.206 S -59.2354 256.916 -46.56 256.916 S -33.0707 269.485 -19.85 269.485 S -6.36684 263.059 6.87 263.059 S 20.5006 267.344 33.59 267.344 S 47.4028 260.668 60.31 260.668 S 74.3521 269.638 87.02 269.638 S 100.58 258.217 113.74 258.217 S 127.416 266.305 140.46 266.305 S 154.447 257.298 167.18 257.298 S 181.319 269.277 193.89 269.277 S 207.719 260.573 220.61 260.573 S 234.751 272.197 247.33 272.197 S 261.291 259.108 274.05 259.108 S 287.748 259.175 300.76 259.175 S 314.273 259.53 327.48 259.53 S 341.225 270.744 354.2 270.744 S 367.858 261.203 380.92 261.203 S 394.382 269.195 407.63 269.195 S 421.31 255.92 434.35 255.92 S 447.846 274.033 461.07 274.033 S 474.594 260.741 487.79 260.741 S 501.601 271.445 514.5 271.445 S 528.205 259.299 541.22 259.299 S 554.758 271.769 567.94 271.769 S 581.776 263.838 594.66 263.838 S 608.385 268.92 621.37 268.92 L 600 350 L -100 350 Z" fill="#96a8a8" stroke-width="0" transform="translate(0.000382423 0)">
  <animate attributeName="d" dur="10s" repeatCount="indefinite" values="M-100 263.2C-86.03 259.66 -86.46 273.64 -73.28 273.64S-59.57 261.29 -46.56 261.29S-32.76 271.31 -19.85 271.31S-6.08 263.84 6.87 263.84S20.66 271.24 33.59 271.24S47.61 257.09 60.31 257.09S73.89 268.14 87.02 268.14S100.46 258.91 113.74 258.91S127.48 266.09 140.46 266.09S154.24 258.9 167.18 258.9S181.12 261.03 193.89 261.03S207.99 262.39 220.61 262.39S234.52 273.32 247.33 273.32S260.94 261.14 274.05 261.14S288.25 273.23 300.76 273.23S314.44 264.04 327.48 264.04S341.36 269.31 354.2 269.31S368.4 263.02 380.92 263.02S394.35 266.43 407.63 266.43S421.27 255.88 434.35 255.88S447.95 271.85 461.07 271.85S474.57 255.53 487.79 255.53S501.96 269.15 514.5 269.15S528.5 260.63 541.22 260.63S555.14 267.49 567.94 267.49S581.84 263.83 594.66 263.83S608.72 261.59 621.37 261.59L600 350 L-100 350 Z;M-100 271.45C-86.54 274.31 -86.6 266.82 -73.28 266.82S-59.15 255.8 -46.56 255.8S-33.15 269.02 -19.85 269.02S-6.44 262.86 6.87 262.86S20.46 266.35 33.59 266.35S47.35 261.58 60.31 261.58S74.47 270.02 87.02 270.02S100.61 258.04 113.74 258.04S127.4 266.36 140.46 266.36S154.5 256.89 167.18 256.89S181.37 271.38 193.89 271.38S207.65 260.11 220.61 260.11S234.81 271.91 247.33 271.91S261.38 258.59 274.05 258.59S287.62 255.59 300.76 255.59S314.23 258.38 327.48 258.38S341.19 271.11 354.2 271.11S367.72 260.74 380.92 260.74S394.39 269.9 407.63 269.9S421.32 255.93 434.35 255.93S447.82 274.59 461.07 274.59S474.6 262.07 487.79 262.07S501.51 272.03 514.5 272.03S528.13 258.96 541.22 258.96S554.66 272.86 567.94 272.86S581.76 263.84 594.66 263.84S608.3 270.79 621.37 270.79L600 350 L-100 350 Z;M-100 263.2C-86.03 259.66 -86.46 273.64 -73.28 273.64S-59.57 261.29 -46.56 261.29S-32.76 271.31 -19.85 271.31S-6.08 263.84 6.87 263.84S20.66 271.24 33.59 271.24S47.61 257.09 60.31 257.09S73.89 268.14 87.02 268.14S100.46 258.91 113.74 258.91S127.48 266.09 140.46 266.09S154.24 258.9 167.18 258.9S181.12 261.03 193.89 261.03S207.99 262.39 220.61 262.39S234.52 273.32 247.33 273.32S260.94 261.14 274.05 261.14S288.25 273.23 300.76 273.23S314.44 264.04 327.48 264.04S341.36 269.31 354.2 269.31S368.4 263.02 380.92 263.02S394.35 266.43 407.63 266.43S421.27 255.88 434.35 255.88S447.95 271.85 461.07 271.85S474.57 255.53 487.79 255.53S501.96 269.15 514.5 269.15S528.5 260.63 541.22 260.63S555.14 267.49 567.94 267.49S581.84 263.83 594.66 263.83S608.72 261.59 621.37 261.59L600 350 L-100 350 Z"></animate>
  <animateTransform attributeName="transform" type="translate" dur="10s" begin="-6s" repeatCount="indefinite" values="0;10;0" calcMode="spline" keySplines="0.3 0 0.7 1;0.3 0 0.7 1"></animateTransform>
</path><path d="M -100 269.5 C -85.5618 271.773 -85.7662 277.652 -72.44 277.652 S -58.4319 270.315 -44.88 270.315 S -30.8944 269.969 -17.32 269.969 S -2.72928 269.793 10.24 269.793 S 24.2537 277.334 37.8 277.334 S 51.6863 266.082 65.35 266.082 S 79.5787 279.086 92.91 279.086 S 107.336 264.47 120.47 264.47 S 134.787 284.265 148.03 284.265 S 162.511 272.316 175.59 272.316 S 189.697 277.7 203.15 277.7 S 216.961 265.509 230.71 265.509 S 244.714 282.03 258.27 282.03 S 272.434 267.182 285.83 267.182 S 300.011 283.703 313.39 283.703 S 327.605 280.096 340.94 280.096 S 355.224 282.373 368.5 282.373 S 382.444 278.966 396.06 278.966 S 410.255 277.43 423.62 277.43 S 437.976 267.93 451.18 267.93 S 465.038 280.918 478.74 280.918 S 492.792 265.59 506.3 265.59 S 520.816 282.404 533.86 282.404 S 548.3 269.188 561.42 269.188 S 575.404 279.193 588.98 279.193 S 603.026 268.086 616.54 268.086 L 600 350 L -100 350 Z" fill="#aebdbd" stroke-width="0" transform="translate(4.46328 0)">
  <animate attributeName="d" dur="7.5s" repeatCount="indefinite" values="M-100 266.94C-86.04 264.91 -86.16 280.84 -72.44 280.84S-58.01 272.04 -44.88 272.04S-30.36 284.09 -17.32 284.09S-3.47 272.99 10.24 272.99S24.46 281.46 37.8 281.46S51.63 264.76 65.35 264.76S79.71 284.58 92.91 284.58S107.27 265.37 120.47 265.37S134.29 278.62 148.03 278.62S162.07 270.15 175.59 270.15S189.65 281.31 203.15 281.31S216.98 269.71 230.71 269.71S245.23 280.68 258.27 280.68S272.5 267.97 285.83 267.97S299.72 278.79 313.39 278.79S327.98 267.71 340.94 267.71S355.14 280.17 368.5 280.17S382.95 269.13 396.06 269.13S409.88 278.48 423.62 278.48S438.06 282.81 451.18 282.81S465.01 280.89 478.74 280.89S492.82 268.59 506.3 268.59S520.61 278.25 533.86 278.25S548 272.31 561.42 272.31S575.76 283.3 588.98 283.3S603.41 268.62 616.54 268.62L600 350 L-100 350 Z;M-100 269.67C-85.53 272.23 -85.74 277.44 -72.44 277.44S-58.46 270.2 -44.88 270.2S-30.93 269.03 -17.32 269.03S-2.68 269.58 10.24 269.58S24.24 277.06 37.8 277.06S51.69 266.17 65.35 266.17S79.57 278.72 92.91 278.72S107.34 264.41 120.47 264.41S134.82 284.64 148.03 284.64S162.54 272.46 175.59 272.46S189.7 277.46 203.15 277.46S216.96 265.23 230.71 265.23S244.68 282.12 258.27 282.12S272.43 267.13 285.83 267.13S300.03 284.03 313.39 284.03S327.58 280.92 340.94 280.92S355.23 282.52 368.5 282.52S382.41 279.62 396.06 279.62S410.28 277.36 423.62 277.36S437.97 266.94 451.18 266.94S465.04 280.92 478.74 280.92S492.79 265.39 506.3 265.39S520.83 282.68 533.86 282.68S548.32 268.98 561.42 268.98S575.38 278.92 588.98 278.92S603 268.05 616.54 268.05L600 350 L-100 350 Z;M-100 266.94C-86.04 264.91 -86.16 280.84 -72.44 280.84S-58.01 272.04 -44.88 272.04S-30.36 284.09 -17.32 284.09S-3.47 272.99 10.24 272.99S24.46 281.46 37.8 281.46S51.63 264.76 65.35 264.76S79.71 284.58 92.91 284.58S107.27 265.37 120.47 265.37S134.29 278.62 148.03 278.62S162.07 270.15 175.59 270.15S189.65 281.31 203.15 281.31S216.98 269.71 230.71 269.71S245.23 280.68 258.27 280.68S272.5 267.97 285.83 267.97S299.72 278.79 313.39 278.79S327.98 267.71 340.94 267.71S355.14 280.17 368.5 280.17S382.95 269.13 396.06 269.13S409.88 278.48 423.62 278.48S438.06 282.81 451.18 282.81S465.01 280.89 478.74 280.89S492.82 268.59 506.3 268.59S520.61 278.25 533.86 278.25S548 272.31 561.42 272.31S575.76 283.3 588.98 283.3S603.41 268.62 616.54 268.62L600 350 L-100 350 Z"></animate>
  <animateTransform attributeName="transform" type="translate" dur="7.5s" begin="-5.25s" repeatCount="indefinite" values="0;10;0" calcMode="spline" keySplines="0.3 0 0.7 1;0.3 0 0.7 1"></animateTransform>
</path><path d="M -100 276.189 C -85.5608 278.009 -85.4399 292.181 -71.54 292.181 S -57.1284 277.933 -43.09 277.933 S -28.0322 295.031 -14.63 295.031 S -0.0578671 284.608 13.82 284.608 S 28.646 285.316 42.28 285.316 S 57.0696 278.113 70.73 278.113 S 85.2697 290.345 99.19 290.345 S 113.994 277.692 127.64 277.692 S 142.288 285.098 156.1 285.098 S 170.771 274.047 184.55 274.047 S 198.934 291.004 213.01 291.004 S 227.621 282.932 241.46 282.932 S 256.094 293.356 269.92 293.356 S 284.827 275.351 298.37 275.351 S 312.951 290.291 326.83 290.291 S 341.713 273.322 355.28 273.322 S 369.943 288.668 383.74 288.668 S 398.132 277.082 412.2 277.082 S 426.775 291.666 440.65 291.666 S 455.008 281.54 469.11 281.54 S 483.579 288.522 497.56 288.522 S 512.297 276.658 526.02 276.658 S 540.495 293.928 554.47 293.928 S 569.153 276.672 582.93 276.672 S 597.292 285.15 611.38 285.15 L 600 350 L -100 350 Z" fill="#c6d3d3" stroke-width="0" transform="translate(8.92936 0)">
  <animate attributeName="d" dur="5s" repeatCount="indefinite" values="M-100 275.49C-85.76 278.44 -85.7 291.6 -71.54 291.6S-57.23 281.01 -43.09 281.01S-28.02 295.25 -14.63 295.25S0.06 291.57 13.82 291.57S28.52 280.67 42.28 280.67S57.22 275.8 70.73 275.8S85.16 289.76 99.19 289.76S114.27 279.57 127.64 279.57S142.04 290.63 156.1 290.63S170.86 274.38 184.55 274.38S198.91 291.61 213.01 291.61S227.58 288.46 241.46 288.46S256.35 293.12 269.92 293.12S284.99 274.9 298.37 274.9S312.74 291.12 326.83 291.12S341.77 273.2 355.28 273.2S370 289.2 383.74 289.2S398.12 275.57 412.2 275.57S426.43 290.43 440.65 290.43S454.98 273.7 469.11 273.7S483.66 287.92 497.56 287.92S512.61 279.04 526.02 279.04S540.43 292.92 554.47 292.92S569.08 278.7 582.93 278.7S597.3 288.3 611.38 288.3L600 350 L-100 350 Z;M-100 277.21C-85.27 277.38 -85.06 293.03 -71.54 293.03S-56.98 273.44 -43.09 273.44S-28.05 294.71 -14.63 294.71S-0.23 274.44 13.82 274.44S28.83 292.1 42.28 292.1S56.85 281.49 70.73 281.49S85.43 291.2 99.19 291.2S113.59 274.95 127.64 274.95S142.65 277.02 156.1 277.02S170.64 273.56 184.55 273.56S198.97 290.12 213.01 290.12S227.68 274.86 241.46 274.86S255.72 293.7 269.92 293.7S284.59 276.01 298.37 276.01S313.26 289.08 326.83 289.08S341.63 273.5 355.28 273.5S369.86 287.89 383.74 287.89S398.15 279.29 412.2 279.29S427.28 293.47 440.65 293.47S455.05 292.99 469.11 292.99S483.46 289.4 497.56 289.4S511.84 273.18 526.02 273.18S540.59 295.4 554.47 295.4S569.26 273.71 582.93 273.71S597.28 280.55 611.38 280.55L600 350 L-100 350 Z;M-100 275.49C-85.76 278.44 -85.7 291.6 -71.54 291.6S-57.23 281.01 -43.09 281.01S-28.02 295.25 -14.63 295.25S0.06 291.57 13.82 291.57S28.52 280.67 42.28 280.67S57.22 275.8 70.73 275.8S85.16 289.76 99.19 289.76S114.27 279.57 127.64 279.57S142.04 290.63 156.1 290.63S170.86 274.38 184.55 274.38S198.91 291.61 213.01 291.61S227.58 288.46 241.46 288.46S256.35 293.12 269.92 293.12S284.99 274.9 298.37 274.9S312.74 291.12 326.83 291.12S341.77 273.2 355.28 273.2S370 289.2 383.74 289.2S398.12 275.57 412.2 275.57S426.43 290.43 440.65 290.43S454.98 273.7 469.11 273.7S483.66 287.92 497.56 287.92S512.61 279.04 526.02 279.04S540.43 292.92 554.47 292.92S569.08 278.7 582.93 278.7S597.3 288.3 611.38 288.3L600 350 L-100 350 Z"></animate>
  <animateTransform attributeName="transform" type="translate" dur="5s" begin="-4s" repeatCount="indefinite" values="0;10;0" calcMode="spline" keySplines="0.3 0 0.7 1;0.3 0 0.7 1"></animateTransform>
</path><path d="M -100 287.802 C -84.7044 289.046 -85.1164 302.894 -70.59 302.894 S -55.432 283.354 -41.18 283.354 S -25.71 289.144 -11.76 289.144 S 3.59819 289.932 17.65 289.932 S 32.817 304.836 47.06 304.836 S 62.3106 284.475 76.47 284.475 S 91.5618 297.969 105.88 297.969 S 121.196 285.58 135.29 285.58 S 150.607 302.85 164.71 302.85 S 179.915 288.004 194.12 288.004 S 209.05 303.055 223.53 303.055 S 238.708 288.11 252.94 288.11 S 267.949 300.052 282.35 300.052 S 297.565 283.111 311.76 283.111 S 326.55 301.856 341.18 301.856 S 356.061 289.065 370.59 289.065 S 385.941 302.013 400 302.013 S 415.094 282.649 429.41 282.649 S 444.646 301.118 458.82 301.118 S 473.753 287.179 488.24 287.179 S 503.546 302.366 517.65 302.366 S 532.655 286.182 547.06 286.182 S 562.035 298.955 576.47 298.955 S 591.324 284.369 605.88 284.369 L 600 350 L -100 350 Z" fill="#dfe9e9" stroke-width="0" transform="translate(9.99397 0)">
  <animate attributeName="d" dur="2.5s" repeatCount="indefinite" values="M-100 286.55C-84.55 283.21 -84.71 306.04 -70.59 306.04S-55.18 285.37 -41.18 285.37S-25.71 305.15 -11.76 305.15S3.46 289.07 17.65 289.07S32.63 300.95 47.06 300.95S62.4 286.06 76.47 286.06S91.7 297.79 105.88 297.79S120.83 290.36 135.29 290.36S150.03 299.33 164.71 299.33S179.63 289.15 194.12 289.15S209.66 298.69 223.53 298.69S238.48 287.33 252.94 287.33S268.51 297.54 282.35 297.54S297.28 285.33 311.76 285.33S326.81 298.19 341.18 298.19S356.02 286.48 370.59 286.48S385.99 298.03 400 298.03S414.72 283.73 429.41 283.73S444.76 300.37 458.82 300.37S473.59 285.35 488.24 285.35S503.79 300.09 517.65 300.09S532.59 289.84 547.06 289.84S562.32 298.37 576.47 298.37S591.82 289.75 605.88 289.75L600 350 L-100 350 Z;M-100 288.09C-84.74 290.39 -85.21 302.17 -70.59 302.17S-55.49 282.89 -41.18 282.89S-25.71 285.46 -11.76 285.46S3.63 290.13 17.65 290.13S32.86 305.73 47.06 305.73S62.29 284.11 76.47 284.11S91.53 298.01 105.88 298.01S121.28 284.48 135.29 284.48S150.74 303.66 164.71 303.66S179.98 287.74 194.12 287.74S208.91 304.06 223.53 304.06S238.76 288.29 252.94 288.29S267.82 300.63 282.35 300.63S297.63 282.6 311.76 282.6S326.49 302.7 341.18 302.7S356.07 289.66 370.59 289.66S385.93 302.93 400 302.93S415.18 282.4 429.41 282.4S444.62 301.29 458.82 301.29S473.79 287.6 488.24 287.6S503.49 302.89 517.65 302.89S532.67 285.34 547.06 285.34S561.97 299.09 576.47 299.09S591.21 283.13 605.88 283.13L600 350 L-100 350 Z;M-100 286.55C-84.55 283.21 -84.71 306.04 -70.59 306.04S-55.18 285.37 -41.18 285.37S-25.71 305.15 -11.76 305.15S3.46 289.07 17.65 289.07S32.63 300.95 47.06 300.95S62.4 286.06 76.47 286.06S91.7 297.79 105.88 297.79S120.83 290.36 135.29 290.36S150.03 299.33 164.71 299.33S179.63 289.15 194.12 289.15S209.66 298.69 223.53 298.69S238.48 287.33 252.94 287.33S268.51 297.54 282.35 297.54S297.28 285.33 311.76 285.33S326.81 298.19 341.18 298.19S356.02 286.48 370.59 286.48S385.99 298.03 400 298.03S414.72 283.73 429.41 283.73S444.76 300.37 458.82 300.37S473.59 285.35 488.24 285.35S503.79 300.09 517.65 300.09S532.59 289.84 547.06 289.84S562.32 298.37 576.47 298.37S591.82 289.75 605.88 289.75L600 350 L-100 350 Z"></animate>
  <animateTransform attributeName="transform" type="translate" dur="2.5s" begin="-2.25s" repeatCount="indefinite" values="0;10;0" calcMode="spline" keySplines="0.3 0 0.7 1;0.3 0 0.7 1"></animateTransform>
</path></g>
</svg>